<?xml version="1.0" encoding="iso-8859-1"?>
<!-- Generator: Adobe Illustrator 19.0.0, SVG Export Plug-In . SVG Version: 6.00 Build 0)  -->
<svg version="1.1" id="Capa_1" xmlns="http://www.w3.org/2000/svg" xmlns:xlink="http://www.w3.org/1999/xlink" x="0px" y="0px"
	 viewBox="0 0 394.832 394.832" style="enable-background:new 0 0 394.832 394.832;" xml:space="preserve">
<g>
	<path id="Moon-Phases" d="M308.463,345.477c-2.104,0-4.158-0.216-6.169-0.561c17.44-2.961,30.846-18.199,30.846-36.454
		c0-18.255-13.406-33.493-30.846-36.454c2.011-0.345,4.065-0.561,6.169-0.561c20.358,0,37.015,16.657,37.015,37.015
		C345.478,328.82,328.821,345.477,308.463,345.477L308.463,345.477z M308.463,265.277c-23.752,0-43.185,19.433-43.185,43.185
		c0,23.752,19.433,43.185,43.185,43.185c23.752,0,43.185-19.433,43.185-43.185S332.214,265.277,308.463,265.277L308.463,265.277z
		 M308.463,49.354c2.104,0,4.158,0.216,6.169,0.561c-17.44,2.961-30.846,18.199-30.846,36.454s13.406,33.493,30.846,36.454
		c-2.011,0.345-4.066,0.561-6.169,0.561c-20.358,0-37.015-16.657-37.015-37.015S288.104,49.354,308.463,49.354L308.463,49.354z
		 M308.463,129.554c23.752,0,43.185-19.433,43.185-43.185s-19.433-43.185-43.185-43.185c-23.752,0-43.185,19.433-43.185,43.185
		S284.711,129.554,308.463,129.554L308.463,129.554z M86.37,123.385c-20.408,0-37.015-16.607-37.015-37.015
		S65.962,49.355,86.37,49.355s37.015,16.607,37.015,37.015S106.778,123.385,86.37,123.385L86.37,123.385z M86.37,43.185
		c-23.752,0-43.185,19.433-43.185,43.185s19.433,43.185,43.185,43.185s43.185-19.433,43.185-43.185S110.122,43.185,86.37,43.185
		L86.37,43.185z M6.17,197.415c0-20.408,16.607-37.015,37.015-37.015S80.2,177.007,80.2,197.415S63.593,234.43,43.185,234.43
		C22.778,234.431,6.17,217.823,6.17,197.415L6.17,197.415z M86.37,197.415c0-23.752-19.433-43.185-43.185-43.185
		S0,173.663,0,197.415C0,221.167,19.433,240.6,43.185,240.6S86.37,221.167,86.37,197.415L86.37,197.415z M86.37,49.354
		c-2.104,0-4.158,0.216-6.169,0.561c17.44,2.961,30.846,18.199,30.846,36.454s-13.406,33.493-30.846,36.454
		c2.011,0.345,4.065,0.561,6.169,0.561c20.358,0,37.015-16.657,37.015-37.015S106.729,49.354,86.37,49.354L86.37,49.354z
		 M197.416,388.662v-74.031c20.408,0,37.015,16.607,37.015,37.015C234.431,372.054,217.824,388.662,197.416,388.662L197.416,388.662
		z M197.416,308.462c-23.752,0-43.185,19.433-43.185,43.185s19.433,43.185,43.185,43.185s43.185-19.433,43.185-43.185
		S221.168,308.462,197.416,308.462L197.416,308.462z M197.416,80.2c-20.408,0-37.015-16.607-37.015-37.015
		S177.008,6.17,197.416,6.17V80.2z M221.52,7.403c-2.301-1.561-4.757-2.9-7.335-3.998c-3.874-1.641-8.026-2.739-12.369-3.183
		C200.372,0.074,198.904,0,197.417,0c-23.752,0-43.185,19.433-43.185,43.185s19.433,43.185,43.185,43.185
		c1.487,0,2.955-0.074,4.399-0.222c4.343-0.444,8.495-1.542,12.369-3.183c2.579-1.098,5.034-2.443,7.335-3.998
		c3.448-2.332,6.539-5.151,9.186-8.353c6.175-7.471,9.895-17.04,9.895-27.428c0-10.389-3.72-19.957-9.895-27.428
		C228.059,12.554,224.968,9.735,221.52,7.403L221.52,7.403z M86.37,345.477c-20.408,0-37.015-16.607-37.015-37.015
		c0-20.408,16.607-37.015,37.015-37.015s37.015,16.607,37.015,37.015S106.778,345.477,86.37,345.477L86.37,345.477z M86.37,265.277
		c-23.752,0-43.185,19.433-43.185,43.185c0,23.752,19.433,43.185,43.185,43.185s43.185-19.433,43.185-43.185
		S110.122,265.277,86.37,265.277L86.37,265.277z M61.693,308.462c0-18.255,13.406-33.493,30.846-36.454
		c-2.011-0.345-4.065-0.561-6.169-0.561c-20.358,0-37.015,16.657-37.015,37.015c0,20.358,16.657,37.015,37.015,37.015
		c2.104,0,4.158-0.216,6.169-0.561C75.099,341.954,61.693,326.716,61.693,308.462L61.693,308.462z M351.647,154.231
		c-23.752,0-43.185,19.433-43.185,43.185c0,23.752,19.433,43.185,43.185,43.185s43.185-19.433,43.185-43.185
		S375.399,154.231,351.647,154.231L351.647,154.231z"/>
</g>
<g>
</g>
<g>
</g>
<g>
</g>
<g>
</g>
<g>
</g>
<g>
</g>
<g>
</g>
<g>
</g>
<g>
</g>
<g>
</g>
<g>
</g>
<g>
</g>
<g>
</g>
<g>
</g>
<g>
</g>
</svg>
